<svg width="147" height="148" viewBox="0 0 147 148" fill="none" xmlns="http://www.w3.org/2000/svg">
<rect width="147" height="148" fill="#FFFDF9"/>
<path d="M72.7305 68.3982C72.7305 68.3982 72.7305 68.3664 72.7305 68.3346C72.8578 67.9533 73.1124 67.6038 73.3987 67.3178C73.5578 67.0636 73.7169 66.7776 73.876 66.5234C70.6942 61.2484 67.4805 55.9734 64.2033 50.7938C63.3124 50.1265 61.5624 50.4125 62.3578 51.8742C65.6669 57.594 69.0078 63.2821 72.3805 68.9702C72.5078 68.7795 72.6033 68.6206 72.6987 68.43L72.7305 68.3982Z" fill="#231F20"/>
<path d="M110.435 125.819C107.317 121.275 104.262 116.604 101.272 111.869C100.444 112.155 99.5852 112.282 98.6943 112.314C99.6488 113.871 100.603 115.428 101.558 116.985C104.231 120.385 105.885 124.675 109.258 127.471C110.753 128.107 111.358 126.772 110.435 125.819Z" fill="#231F20"/>
<path d="M69.0396 77.804C65.0305 69.0335 60.9578 60.3585 56.6623 52.0329C56.0578 51.0796 53.3214 50.6983 54.276 52.6367C59.3033 62.7735 64.0124 73.0374 68.7214 83.3332C68.5624 81.4901 68.6896 79.6153 69.0714 77.804H69.0396Z" fill="#231F20"/>
<path d="M97.8352 135.352C93.6034 128.52 89.6579 121.243 85.8716 113.68C85.3943 113.902 84.917 114.157 84.4079 114.379C84.3125 114.443 84.2488 114.443 84.1534 114.474C84.0261 114.538 83.8988 114.602 83.7716 114.633C83.7716 114.633 83.7716 114.602 83.7716 114.57C83.7079 114.57 83.6443 114.57 83.5807 114.633C86.6352 120.703 89.7852 126.677 93.1579 132.587C94.2398 134.081 94.8761 136.051 96.6261 137.004C98.1216 137.64 98.7261 136.305 97.8034 135.352H97.8352Z" fill="#231F20"/>
<path d="M110.881 127.98C110.944 126.899 110.944 125.692 110.053 124.993C109.512 124.294 107.317 123.881 107.667 125.406C108.272 127.98 104.612 134.685 99.9034 135.924C99.7124 135.988 99.5215 136.019 99.3624 136.051C99.3306 136.051 99.2988 136.051 99.2988 136.051C99.267 136.051 99.2352 136.019 99.1715 135.988C99.0443 135.892 98.7579 135.765 98.5033 135.702C96.1488 135.13 97.2625 137.831 98.4715 138.148C103.944 141.135 110.531 132.619 110.912 127.948L110.881 127.98Z" fill="#231F20"/>
<path d="M64.3624 54.6705C72.0624 42.0551 66.526 32.3631 59.2396 23.6562C53.0351 15.7755 48.8351 8.94351 43.4896 0.840399C43.0124 0.300191 41.6442 -0.526009 40.976 0.459076C41.0715 2.46102 42.9805 3.89098 43.776 5.60694C48.8669 13.9643 56.726 24.0375 61.5624 30.806C65.8578 36.8119 66.2078 42.8177 62.2942 50.9844C61.9442 51.9059 60.8942 52.891 61.4669 53.749C61.8487 54.5116 63.4396 55.8462 64.3942 54.6705H64.3624Z" fill="#231F20"/>
<path d="M58.2853 54.5115C42.1853 58.007 39.958 40.053 34.4535 26.2936C32.6398 21.3682 30.4444 16.6017 28.3444 11.8033C28.0262 11.2314 27.4853 10.7229 26.7535 10.5323C25.7353 10.1192 24.9398 11.0407 25.5126 11.8669C29.7762 20.9233 32.5444 29.2171 36.0762 39.0044C39.4807 48.1561 45.6853 59.7229 59.3035 57.5939C62.5489 57.149 60.1944 54.0984 58.2535 54.5115H58.2853Z" fill="#231F20"/>
<path d="M55.9306 35.6681C52.9715 30.7109 49.9169 25.7855 47.1169 20.7011C43.776 15.2037 41.1351 9.16613 36.9988 4.24071C36.076 3.47806 34.3578 3.98649 35.1533 5.32112C41.4851 15.2673 46.8942 25.7537 53.1306 35.7316C53.6078 36.4943 54.4669 37.2887 55.6124 37.0663C56.2806 36.812 56.1533 36.0494 55.9306 35.6681Z" fill="#231F20"/>
<path d="M49.5034 37.6064C45.4943 30.2977 40.8488 23.3386 36.5534 16.2205C34.4534 13.3288 33.467 9.61093 31.1125 6.97345C30.1897 6.2108 28.4716 6.71923 29.267 8.05386C34.3579 18.6674 41.6443 28.0415 47.0852 38.4644C47.5625 39.513 48.3897 40.8476 49.9807 40.5616C51.2534 39.7354 49.6943 38.4644 49.4716 37.6382L49.5034 37.6064Z" fill="#231F20"/>
<path d="M61.5625 33.38C56.567 23.1479 50.3943 13.583 44.5079 3.8593C43.9352 2.87421 43.1398 1.53958 41.5488 1.7938C40.8807 2.04801 41.0079 2.81066 41.2307 3.19198C45.4307 10.0558 49.6625 16.8878 53.6716 23.8788C55.4852 27.0247 57.1716 30.2024 58.7625 33.4754C59.0807 34.0474 59.6216 34.5558 60.3534 34.7465C61.4034 35.1913 62.1352 34.2062 61.5943 33.4118L61.5625 33.38Z" fill="#231F20"/>
<path d="M44.3489 40.5617C41.1353 35.9541 38.6535 32.1408 35.6626 26.5799C34.8035 25.2452 34.358 22.9255 32.0671 23.1797C31.3989 23.434 31.5262 24.1966 31.7489 24.5779C34.7717 30.4249 38.2399 35.9858 42.0262 41.3561C42.9171 42.8179 45.8762 42.6908 44.3489 40.5617Z" fill="#231F20"/>
<path d="M59.9718 36.2399C60.4172 35.8903 61.1172 35.8268 61.4672 35.4137C62.04 34.1426 60.3218 32.7444 58.9218 32.9668C57.49 33.7295 55.39 34.5239 54.4354 35.7314C54.34 36.9072 55.5172 37.8605 56.7581 37.9558C57.9991 37.6063 59.5263 36.367 59.94 36.2399H59.9718Z" fill="#231F20"/>
<path d="M55.2307 38.1465C58.0943 36.653 55.0716 34.0155 53.5125 34.9052C49.8534 37.7651 46.9262 39.2904 42.8216 41.1971C42.5034 41.2924 42.3125 41.6102 42.3125 41.8961C42.4398 43.1037 43.9034 44.4701 45.4625 43.7392C48.8671 42.1504 52.0807 40.212 55.1989 38.1782L55.2307 38.1465Z" fill="#231F20"/>
<path d="M86.7625 144.949C86.858 144.599 86.7943 144.25 86.6352 143.964C69.1352 117.811 53.7989 88.2904 37.8898 60.0407C32.1943 49.9992 27.1989 39.5446 20.9943 29.7891C18.4171 26.1348 16.158 21.8449 11.5761 19.97C8.74433 18.8578 4.98978 20.3196 2.85796 22.8617C0.980692 24.959 -0.292036 27.6283 0.0579643 30.0433C1.26706 37.3838 5.62615 43.4532 9.88978 49.2366C19.5943 61.852 28.6943 75.6114 40.5943 86.352C43.9671 85.9071 37.4125 80.6639 36.8398 79.52C27.9307 69.4785 19.7852 58.865 11.958 48.0608C8.01251 42.913 4.38524 37.1931 3.2716 31.4415C2.69887 28.4227 5.53069 24.4506 8.48978 22.9888C11.7671 21.8131 11.8625 22.4486 13.6761 23.9104C21.6625 33.0621 28.0898 48.1244 35.1216 60.1678C50.3625 87.0193 64.3943 114.633 81.4807 140.405C81.4807 140.373 81.4171 140.309 81.3852 140.277C82.2125 141.517 83.0398 142.756 83.8034 144.059C84.1534 144.631 84.6625 145.139 85.3943 145.33C85.7761 145.521 86.5398 145.489 86.7625 144.98V144.949Z" fill="#231F20"/>
<path d="M84.567 144.059C82.7216 145.044 75.6898 143.074 74.2898 141.993C59.2716 134.748 54.4988 120.544 45.8761 105.831C42.8852 101.065 40.6898 95.6945 37.2216 91.2775C36.3625 90.6102 34.5488 90.8962 35.3761 92.3579C44.2534 106.689 50.5534 122.737 61.6898 135.67C67.9261 141.199 75.4988 147.459 85.7125 147.014C89.3079 146.824 86.6034 143.042 84.567 144.059Z" fill="#231F20"/>
<path d="M42.7261 86.8924C42.8534 85.7167 41.2307 84.1596 39.7988 84.8905C38.9398 85.4942 35.0579 87.1466 33.2443 88.2588C32.9897 88.5448 33.0852 88.9261 33.2443 89.1803C34.167 91.3729 36.2352 90.7374 38.3988 89.4663C39.7352 88.6084 41.867 88.1317 42.7261 86.9242V86.8924Z" fill="#231F20"/>
<path d="M85.8714 90.4829C82.3714 91.2137 78.9351 95.313 76.3578 96.2027C76.326 96.2027 76.2623 96.2345 76.2305 96.2663C75.7214 94.741 77.1214 93.1521 78.1078 91.3091C80.3987 87.4323 83.8351 84.3182 86.3169 80.6638C85.9669 79.5516 83.9305 80.1554 83.3578 80.8863C81.4487 83.5873 70.2805 94.9952 73.7169 97.6962C74.576 98.1411 75.6578 98.0458 76.5805 97.8551C80.3351 96.6158 83.2624 93.7559 86.5396 91.6586C87.2396 91.1184 86.6351 90.4829 85.9351 90.5147L85.8714 90.4829Z" fill="#231F20"/>
<path d="M99.8079 83.7778C98.5352 85.4938 97.4215 86.7331 96.7215 87.1779C96.117 86.9237 95.6715 86.4153 94.8443 85.6844C91.7897 82.888 87.6534 77.4542 83.2943 81.2356C81.767 82.8563 85.1079 82.7292 85.7761 81.7441C86.6988 82.0301 87.6534 82.7292 88.6715 83.6825C90.517 85.3666 92.1715 87.4639 94.3988 88.6714C98.1534 90.0061 100.922 86.2246 102.894 83.5871C104.262 81.7123 100.253 82.3161 99.8079 83.7778Z" fill="#231F20"/>
<path d="M105.79 85.1762C103.531 88.767 98.8534 96.6477 97.6443 95.8851C96.8489 96.2028 92.6489 92.612 89.7216 90.2923C88.5761 89.7203 87.2079 89.8157 86.0625 90.2923C84.5352 90.8643 81.7352 93.2158 85.2989 92.7709C85.6807 92.8027 86.9534 91.8176 87.0489 91.6905C87.0489 91.6905 87.0807 91.6905 87.1125 91.6587C87.7807 91.9765 90.7398 94.7729 92.5852 95.9804C95.5125 98.6814 100.062 97.6963 102.449 94.7729C104.453 91.8494 107.667 87.6231 108.844 84.5407C108.112 83.7145 106.267 84.2547 105.822 85.1762H105.79Z" fill="#231F20"/>
<path d="M92.3308 63.3136C85.5536 63.6631 78.1717 64.966 73.2399 70.0185C63.4717 79.9647 63.249 97.1878 72.8263 107.388C73.9717 108.627 74.6399 111.233 74.4808 112.631C74.5126 113.172 74.2581 113.744 74.4172 114.252C74.7672 114.76 75.5627 114.633 76.1036 114.538C77.6308 114.316 77.599 112.854 77.599 111.614C77.7899 106.689 72.7945 103.829 71.5217 100.016C65.2536 88.1313 70.8854 71.2896 80.4945 67.1903C83.5808 65.8239 87.2081 65.3791 90.8354 65.0295C91.3445 65.0295 91.8536 65.0295 92.3308 64.8071C93.3172 64.5211 93.7626 63.3136 92.3308 63.3136Z" fill="#231F20"/>
<path d="M117.658 86.2884C117.499 85.9389 117.34 85.5258 116.894 85.494C116.035 85.3351 114.444 85.6529 114.381 86.7015C115.94 90.7372 114.635 96.2028 113.108 99.3805C110.276 104.274 106.044 107.134 101.972 108.945C97.4534 110.852 93.5079 111.138 87.5579 110.725C84.8216 110.63 82.0216 110.089 79.3488 110.82C77.2488 111.392 75.5943 112.886 74.067 114.347C74.0034 114.379 73.9398 114.443 73.8761 114.475C73.1443 115.142 73.8761 116.095 75.7216 115.396C77.5034 114.347 78.267 113.013 79.6034 112.441C79.667 112.409 79.7625 112.377 79.8579 112.345C83.2625 111.773 92.2034 113.489 97.9943 111.901C106.967 109.772 116.353 103.48 117.849 93.8195C118.231 91.3409 118.39 88.7035 117.658 86.2884Z" fill="#231F20"/>
<path d="M140.758 44.2793C133.599 35.8584 121.54 34.4602 111.326 37.193C104.708 38.6547 97.9626 41.7371 94.7808 48.0607C92.299 52.7001 90.9626 58.0704 91.0899 63.3136C91.0899 63.3772 91.0899 63.4725 91.0899 63.5678C90.7717 63.8221 90.5808 64.1398 90.7399 64.5529C92.458 73.7682 99.2353 85.049 110.053 87.1145C120.172 88.8305 131.117 86.0659 139.326 79.9647C149.444 71.099 148.999 54.2254 140.726 44.2793H140.758ZM136.908 79.4245C128.953 85.1761 116.672 88.5127 107.031 83.6191C101.081 80.3778 96.8171 74.2449 94.8444 67.3175C94.749 67.0633 94.6853 66.7455 94.6217 66.4595C94.6217 66.396 94.6535 66.3324 94.6535 66.2689C94.2399 63.5043 94.0808 61.5977 94.3989 59.1191C95.258 52.573 97.5808 46.5354 102.035 42.8493C112.09 36.0808 131.626 33.9518 140.281 48.7916C142.126 51.9057 144.322 58.992 144.003 62.5828C143.717 69.2877 141.426 75.8019 136.972 79.4563L136.908 79.4245Z" fill="#231F20"/>
<path d="M123.321 50.2533C123.035 48.3467 121.349 48.1561 119.917 49.0776C118.676 50.2533 118.167 52.0328 117.053 53.3357C115.94 54.9563 114.349 56.1956 113.553 56.5452C113.521 56.5452 113.49 56.5452 113.458 56.5452C112.599 56.3863 110.499 57.6891 112.09 58.2293C115.781 58.4836 118.453 55.6554 120.49 52.6684C121.54 57.9751 121.444 63.5361 121.603 68.9382C121.476 70.4635 123.99 69.8597 124.562 69.0653C124.817 62.9005 124.499 56.4181 123.353 50.2851L123.321 50.2533Z" fill="#231F20"/>
<path d="M128.158 69.6691C123.735 69.9551 119.313 70.2093 114.89 70.4953C114.89 70.4953 113.617 70.4953 113.363 70.7177C112.344 71.0355 111.931 72.1795 113.363 72.2112C118.326 71.8935 123.385 71.7664 128.317 71.1944C128.826 71.0355 129.494 70.7177 129.463 70.114C129.272 69.6055 128.603 69.6055 128.158 69.6373V69.6691Z" fill="#231F20"/>
<path d="M121.89 52.1917C121.794 50.8888 119.121 51.5879 118.803 52.5094C118.867 57.6891 119.121 62.8687 119.153 68.0801C119.758 69.0334 121.508 68.4614 122.112 67.7624C122.431 62.8687 121.89 56.3544 121.89 52.1917Z" fill="#231F20"/>
<path d="M122.081 54.861C121.953 54.3843 122.176 53.717 121.762 53.3674C120.903 52.859 118.994 53.2721 118.867 54.4161C119.217 58.2611 119.631 62.0743 119.949 65.9193C120.108 66.3642 120.681 66.4277 121.062 66.396C121.794 66.3642 123.003 66.0464 123.035 65.1567C122.749 61.7248 122.399 58.2929 122.049 54.8927L122.081 54.861Z" fill="#231F20"/>
<path d="M122.558 63.0275C121.826 62.2331 119.981 62.7415 119.535 63.6631C119.535 64.6482 119.154 65.951 119.663 66.7772C120.522 67.2539 121.794 66.9043 122.431 66.1734C122.622 65.8557 122.59 63.5995 122.558 62.9958V63.0275Z" fill="#231F20"/>
<path d="M128.699 68.2071C125.135 67.9529 118.358 69.6689 116.322 69.4782C115.081 69.6053 113.744 69.2558 112.535 69.7006C111.517 70.0184 111.103 71.1624 112.535 71.1942C117.499 71.4166 122.367 70.3044 127.235 69.7642C127.935 69.7642 129.717 68.938 128.699 68.2071Z" fill="#231F20"/>
<path d="M130.099 68.1756C129.24 67.6671 127.331 68.0802 127.203 69.1924C126.949 71.1626 129.367 70.8766 130.29 69.828C130.512 69.542 130.385 68.3662 130.067 68.1438L130.099 68.1756Z" fill="#231F20"/>
<path d="M113.744 69.9234C112.885 69.415 110.976 69.8281 110.849 70.9403C110.944 71.3851 110.817 72.0207 111.199 72.3385C112.058 72.8151 113.331 72.4656 113.967 71.7347C114.19 71.4169 114.031 70.1141 113.712 69.9234H113.744Z" fill="#231F20"/>
<path d="M112.917 68.3343C112.058 67.8258 110.149 68.2389 110.021 69.3829C110.276 70.0184 110.117 70.9082 110.594 71.3848C111.453 71.8615 112.726 71.5119 113.362 70.7811C113.617 70.4315 113.235 68.6203 112.885 68.3343H112.917Z" fill="#231F20"/>
<path d="M121.222 67.2859C117.944 67.699 114.572 67.7943 111.294 68.2392C109.831 68.5887 109.735 70.0187 111.454 69.7963C114.763 69.5103 118.104 69.3514 121.381 68.843C121.89 68.6841 122.558 68.3663 122.526 67.7625C122.335 67.2541 121.667 67.2541 121.222 67.2859Z" fill="#231F20"/>
<path d="M128.667 66.8727C126.758 66.9998 124.721 66.6185 122.94 67.3176C121.253 68.112 122.653 69.0653 123.894 68.6522C124.085 68.6205 123.799 68.6522 123.64 68.684C124.626 68.3027 127.872 69.3195 129.494 67.7943C129.908 67.254 129.176 66.8409 128.667 66.8727Z" fill="#231F20"/>
<path d="M131.372 68.4296C131.244 68.0483 131.467 67.4445 131.085 67.1903C130.226 66.6819 128.317 67.095 128.19 68.2071C128.317 69.0333 128.19 70.1773 128.667 70.8764C129.526 71.3531 130.799 71.0035 131.435 70.2727C131.722 69.7007 131.372 69.0333 131.372 68.3978V68.4296Z" fill="#231F20"/>
<path d="M113.999 57.1172C113.14 56.6088 111.231 57.0219 111.104 58.1341C111.231 58.6425 111.104 59.4052 111.517 59.7547C112.376 60.2314 113.649 59.8818 114.285 59.151C114.508 58.865 114.285 57.2761 113.999 57.0854V57.1172Z" fill="#231F20"/>
<path d="M118.294 55.4331C116.481 56.9901 114.731 58.0706 113.84 58.3248C112.631 58.2294 110.467 59.7547 112.631 60.0725C116.131 59.9454 119.185 57.4668 121.603 55.1471C121.858 53.5582 118.803 54.6069 118.294 55.4649V55.4331Z" fill="#231F20"/>
<path d="M116.735 56.0369C116.417 57.3397 118.899 56.8313 119.44 56.2593C122.494 53.7807 117.626 54.0985 116.735 56.0369Z" fill="#231F20"/>
<path d="M115.526 56.6089C111.803 58.4202 115.653 59.0557 117.403 57.5622C119.249 56.2911 116.417 55.878 115.526 56.6089Z" fill="#231F20"/>
<path d="M92.2352 60.8034C83.9943 61.0577 75.1489 63.6951 69.8671 70.3365C66.0807 75.2937 63.758 82.0622 65.1261 88.2587C65.7307 89.212 67.4807 88.64 68.0852 87.9409C68.4034 87.3689 67.9261 86.6063 67.9261 85.9708C67.7034 84.3501 67.7034 83.7146 67.8307 82.3482C68.9443 73.6413 74.258 66.9046 80.5898 64.6485C82.6261 63.7905 83.8352 63.5363 86.6352 62.9643C88.9898 62.4876 90.2625 62.6783 92.2352 62.2652C93.2216 61.9792 93.6671 60.8034 92.2352 60.7717V60.8034Z" fill="#231F20"/>
<path d="M121.254 86.2564C121.254 85.9387 120.935 85.7162 120.617 85.6844C119.79 85.5256 118.167 85.8433 118.104 86.892C118.835 92.8025 116.099 101.255 112.408 104.941C108.972 108.5 105.472 109.644 101.304 110.884C95.5127 112.885 89.1172 110.947 81.8945 112.504C79.9218 112.981 76.5172 114.887 75.9127 115.205C75.8491 115.205 75.7218 115.11 75.6263 115.046C76.0082 115.301 75.6263 115.078 75.4991 114.887C75.1491 114.506 75.3082 114.538 74.99 113.839C73.9081 110.598 74.6718 107.102 73.7809 103.861C73.3991 103.13 72.2854 103.384 71.6491 103.607C70.2809 104.02 70.8536 105.164 71.0127 106.181C71.5218 109.326 70.8218 112.79 72.4127 115.682C75.1491 119.336 81.0036 113.902 82.1172 114.093C84.7581 113.235 86.8582 113.648 90.7718 113.648C99.5854 113.68 109.322 111.487 115.495 104.814C117.881 102.018 119.504 98.5859 120.49 95.0586C121.126 92.1669 121.476 89.1799 121.254 86.2247V86.2564Z" fill="#231F20"/>
</svg>
