<svg preserveAspectRatio="none" width="100%" height="100%" overflow="visible" style="display: block;" viewBox="0 0 195.914 59.33" fill="none" xmlns="http://www.w3.org/2000/svg">
<g id="Layer_1" clip-path="url(#clip0_0_7)">
<path id="Vector" d="M182.813 14.5689C191.863 10.064 195.848 12.515 195.903 22.2093C195.93 27.1798 195.93 32.1365 195.903 37.1069C195.848 46.8971 191.932 49.307 183.21 44.939C179.814 55.2085 177.692 56.7558 166.874 56.7558C158.714 56.7558 150.553 56.8653 142.392 56.7147C134.847 56.5777 130.699 52.4289 130.603 44.8843C130.466 34.7381 130.466 24.5782 130.603 14.4183C130.712 6.85995 134.834 2.72479 142.392 2.58786C151.005 2.43724 159.617 2.53309 168.23 2.54679C177.678 2.57417 180.526 4.87453 182.813 14.5552V14.5689ZM176.856 29.8224C176.856 24.6466 177.514 19.3339 176.569 14.3361C176.103 11.9125 172.748 8.40721 170.489 8.2429C161.26 7.54458 151.949 7.92797 142.68 7.94167C138.243 7.94167 135.984 10.2146 135.97 14.61C135.943 24.7425 135.6 34.9024 136.258 45.0075C136.408 47.2531 140.078 50.8953 142.337 51.0733C151.566 51.7717 160.877 51.3746 170.147 51.3746C174.583 51.3746 176.815 49.0879 176.843 44.7063C176.87 39.7496 176.843 34.7928 176.843 29.8361L176.856 29.8224ZM190.001 41.8034V17.1431C185.113 20.0596 182.087 22.538 182.087 28.2615C182.087 34.3684 183.086 39.106 190.001 41.7898V41.8034Z" fill="var(--fill-0, black)"/>
<path id="Vector_2" d="M45.719 59.3299C43.6377 58.9191 40.5568 58.8232 37.9005 57.7141C19.1964 49.8683 5.55858 37.2163 0.547095 16.9513C-1.20556 9.85853 1.2728 4.51842 7.69463 1.02681C9.32405 0.150486 11.7339 -0.287677 13.4592 0.205256C19.8536 2.02637 26.6315 14.7194 25.0431 21.2508C23.3316 28.2888 31.0405 36.0251 38.0785 34.3272C44.6372 32.7389 57.1797 39.4619 59.3705 45.7331C61.2737 51.1691 53.6196 59.2751 45.719 59.3436V59.3299ZM11.7339 5.09351C5.85982 8.02373 4.21671 11.9809 6.17475 17.677C12.309 35.5458 24.29 47.4036 42.3643 53.2367C48.2521 55.1399 51.7437 52.7711 54.359 47.5132C49.0736 42.9809 45.2123 37.6408 36.6545 40.2972C29.4248 42.5291 16.7728 30.0003 19.0184 22.8117C21.6748 14.2949 16.362 10.4199 11.7203 5.1072L11.7339 5.09351Z" fill="var(--fill-0, black)"/>
</g>
<defs>
<clipPath id="clip0_0_7">
<rect width="195.914" height="59.33" fill="white"/>
</clipPath>
</defs>
</svg>
